{"asset":{"version":"2.0","generator":"ROOMFIT real-size product model generator"},"scene":0,"scenes":[{"nodes":[0,1,2,3,4,5,6,7]}],"nodes":[{"name":"back","mesh":0,"translation":[0,1.01,-0.12600000000000003],"scale":[0.4,2.02,0.028000000000000004],"extras":{"material":1}},{"name":"left-side","mesh":0,"translation":[-0.18400000000000002,1.01,0],"scale":[0.032,2.02,0.28],"extras":{"material":0}},{"name":"right-side","mesh":0,"translation":[0.18400000000000002,1.01,0],"scale":[0.032,2.02,0.28],"extras":{"material":0}},{"name":"top","mesh":0,"translation":[0,1.98,0],"scale":[0.4,0.08,0.28],"extras":{"material":0}},{"name":"bottom","mesh":0,"translation":[0,0.04,0],"scale":[0.4,0.08,0.28],"extras":{"material":0}},{"name":"shelf-1","mesh":0,"translation":[0,0.505,0],"scale":[0.35200000000000004,0.055,0.2632],"extras":{"material":0}},{"name":"shelf-2","mesh":0,"translation":[0,1.01,0],"scale":[0.35200000000000004,0.055,0.2632],"extras":{"material":0}},{"name":"shelf-3","mesh":0,"translation":[0,1.5150000000000001,0],"scale":[0.35200000000000004,0.055,0.2632],"extras":{"material":0}}],"meshes":[{"name":"billy-blue-unit-cube","primitives":[{"attributes":{"POSITION":0,"NORMAL":1},"indices":2,"material":0}]}],"materials":[{"name":"billy-blue-main","pbrMetallicRoughness":{"baseColorFactor":[0.1411764705882353,0.2980392156862745,0.4666666666666667,1],"metallicFactor":0.02,"roughnessFactor":0.76}},{"name":"billy-blue-detail","pbrMetallicRoughness":{"baseColorFactor":[0.1411764705882353,0.2980392156862745,0.4666666666666667,1],"metallicFactor":0.01,"roughnessFactor":0.9}}],"buffers":[{"byteLength":648,"uri":"data:application/octet-stream;base64,"}],"bufferViews":[{"buffer":0,"byteOffset":0,"byteLength":288,"target":34962},{"buffer":0,"byteOffset":288,"byteLength":288,"target":34962},{"buffer":0,"byteOffset":576,"byteLength":72,"target":34963}],"accessors":[{"bufferView":0,"componentType":5126,"count":24,"type":"VEC3","min":[-0.5,-0.5,-0.5],"max":[0.5,0.5,0.5]},{"bufferView":1,"componentType":5126,"count":24,"type":"VEC3"},{"bufferView":2,"componentType":5123,"count":36,"type":"SCALAR"}],"extras":{"productId":"billy-blue","type":"shelf","dimensions":[0.4,2.02,0.28],"groundAnchor":[0.5,1]}}