{"asset":{"version":"2.0","generator":"ROOMFIT real-size product model generator"},"scene":0,"scenes":[{"nodes":[0,1,2,3,4,5,6,7]}],"nodes":[{"name":"back","mesh":0,"translation":[0,0.53,-0.12600000000000003],"scale":[0.8,1.06,0.028000000000000004],"extras":{"material":1}},{"name":"left-side","mesh":0,"translation":[-0.36800000000000005,0.53,0],"scale":[0.064,1.06,0.28],"extras":{"material":0}},{"name":"right-side","mesh":0,"translation":[0.36800000000000005,0.53,0],"scale":[0.064,1.06,0.28],"extras":{"material":0}},{"name":"top","mesh":0,"translation":[0,1.02,0],"scale":[0.8,0.08,0.28],"extras":{"material":0}},{"name":"bottom","mesh":0,"translation":[0,0.04,0],"scale":[0.8,0.08,0.28],"extras":{"material":0}},{"name":"shelf-1","mesh":0,"translation":[0,0.265,0],"scale":[0.7040000000000001,0.055,0.2632],"extras":{"material":0}},{"name":"shelf-2","mesh":0,"translation":[0,0.53,0],"scale":[0.7040000000000001,0.055,0.2632],"extras":{"material":0}},{"name":"shelf-3","mesh":0,"translation":[0,0.795,0],"scale":[0.7040000000000001,0.055,0.2632],"extras":{"material":0}}],"meshes":[{"name":"billy-white-unit-cube","primitives":[{"attributes":{"POSITION":0,"NORMAL":1},"indices":2,"material":0}]}],"materials":[{"name":"billy-white-main","pbrMetallicRoughness":{"baseColorFactor":[0.9254901960784314,0.9254901960784314,0.9058823529411765,1],"metallicFactor":0.02,"roughnessFactor":0.76}},{"name":"billy-white-detail","pbrMetallicRoughness":{"baseColorFactor":[0.9254901960784314,0.9254901960784314,0.9058823529411765,1],"metallicFactor":0.01,"roughnessFactor":0.9}}],"buffers":[{"byteLength":648,"uri":"data:application/octet-stream;base64,"}],"bufferViews":[{"buffer":0,"byteOffset":0,"byteLength":288,"target":34962},{"buffer":0,"byteOffset":288,"byteLength":288,"target":34962},{"buffer":0,"byteOffset":576,"byteLength":72,"target":34963}],"accessors":[{"bufferView":0,"componentType":5126,"count":24,"type":"VEC3","min":[-0.5,-0.5,-0.5],"max":[0.5,0.5,0.5]},{"bufferView":1,"componentType":5126,"count":24,"type":"VEC3"},{"bufferView":2,"componentType":5123,"count":36,"type":"SCALAR"}],"extras":{"productId":"billy-white","type":"shelf","dimensions":[0.8,1.06,0.28],"groundAnchor":[0.5,1]}}