{"asset":{"version":"2.0","generator":"ROOMFIT real-size product model generator"},"scene":0,"scenes":[{"nodes":[0,1,2,3,4,5,6,7]}],"nodes":[{"name":"seat","mesh":0,"translation":[0,0.31,0],"scale":[1.804,0.3,0.7176],"extras":{"material":0}},{"name":"back","mesh":0,"translation":[0,0.5712,-0.34040000000000004],"scale":[1.8920000000000001,0.5207999999999999,0.1472],"extras":{"material":0}},{"name":"left-arm","mesh":0,"translation":[-1.0120000000000002,0.46,0],"scale":[0.198,0.55,0.8280000000000001],"extras":{"material":0}},{"name":"right-arm","mesh":0,"translation":[1.0120000000000002,0.46,0],"scale":[0.198,0.55,0.8280000000000001],"extras":{"material":0}},{"name":"left-cushion","mesh":0,"translation":[-0.48400000000000004,0.54,0.02],"scale":[0.8580000000000001,0.18,0.6072000000000001],"extras":{"material":1}},{"name":"right-cushion","mesh":0,"translation":[0.48400000000000004,0.54,0.02],"scale":[0.8580000000000001,0.18,0.6072000000000001],"extras":{"material":1}},{"name":"left-back","mesh":0,"translation":[-0.48400000000000004,0.5795999999999999,-0.23],"scale":[0.8580000000000001,0.40319999999999995,0.1656],"extras":{"material":1}},{"name":"right-back","mesh":0,"translation":[0.48400000000000004,0.5795999999999999,-0.23],"scale":[0.8580000000000001,0.40319999999999995,0.1656],"extras":{"material":1}}],"meshes":[{"name":"demo-soft-cloud-sofa-unit-cube","primitives":[{"attributes":{"POSITION":0,"NORMAL":1},"indices":2,"material":0}]}],"materials":[{"name":"demo-soft-cloud-sofa-main","pbrMetallicRoughness":{"baseColorFactor":[0.8705882352941177,0.8235294117647058,0.7490196078431373,1],"metallicFactor":0.02,"roughnessFactor":0.76}},{"name":"demo-soft-cloud-sofa-detail","pbrMetallicRoughness":{"baseColorFactor":[0.8705882352941177,0.8235294117647058,0.7490196078431373,1],"metallicFactor":0.01,"roughnessFactor":0.9}}],"buffers":[{"byteLength":648,"uri":"data:application/octet-stream;base64,"}],"bufferViews":[{"buffer":0,"byteOffset":0,"byteLength":288,"target":34962},{"buffer":0,"byteOffset":288,"byteLength":288,"target":34962},{"buffer":0,"byteOffset":576,"byteLength":72,"target":34963}],"accessors":[{"bufferView":0,"componentType":5126,"count":24,"type":"VEC3","min":[-0.5,-0.5,-0.5],"max":[0.5,0.5,0.5]},{"bufferView":1,"componentType":5126,"count":24,"type":"VEC3"},{"bufferView":2,"componentType":5123,"count":36,"type":"SCALAR"}],"extras":{"productId":"demo-soft-cloud-sofa","type":"sofa","dimensions":[2.2,0.84,0.92],"groundAnchor":[0.5,1]}}