{"asset":{"version":"2.0","generator":"ROOMFIT real-size product model generator"},"scene":0,"scenes":[{"nodes":[0,1,2,3,4,5]}],"nodes":[{"name":"seat","mesh":0,"translation":[0,0.4048,0],"scale":[0.5184,0.13,0.48360000000000003],"extras":{"material":1}},{"name":"back","mesh":0,"translation":[0,0.6424,-0.23399999999999999],"scale":[0.504,0.46640000000000004,0.1],"extras":{"material":1}},{"name":"left-frame","mesh":0,"translation":[-0.288,0.33440000000000003,0],"scale":[0.055,0.6688000000000001,0.07],"extras":{"material":0}},{"name":"right-frame","mesh":0,"translation":[0.288,0.33440000000000003,0],"scale":[0.055,0.6688000000000001,0.07],"extras":{"material":0}},{"name":"left-base","mesh":0,"translation":[-0.288,0.05,0.06],"scale":[0.07,0.1,0.6864],"extras":{"material":0}},{"name":"right-base","mesh":0,"translation":[0.288,0.05,0.06],"scale":[0.07,0.1,0.6864],"extras":{"material":0}}],"meshes":[{"name":"demo-oak-lounge-chair-unit-cube","primitives":[{"attributes":{"POSITION":0,"NORMAL":1},"indices":2,"material":0}]}],"materials":[{"name":"demo-oak-lounge-chair-main","pbrMetallicRoughness":{"baseColorFactor":[0.8392156862745098,0.7137254901960784,0.5568627450980392,1],"metallicFactor":0.02,"roughnessFactor":0.76}},{"name":"demo-oak-lounge-chair-detail","pbrMetallicRoughness":{"baseColorFactor":[0.8392156862745098,0.7137254901960784,0.5568627450980392,1],"metallicFactor":0.01,"roughnessFactor":0.9}}],"buffers":[{"byteLength":648,"uri":"data:application/octet-stream;base64,"}],"bufferViews":[{"buffer":0,"byteOffset":0,"byteLength":288,"target":34962},{"buffer":0,"byteOffset":288,"byteLength":288,"target":34962},{"buffer":0,"byteOffset":576,"byteLength":72,"target":34963}],"accessors":[{"bufferView":0,"componentType":5126,"count":24,"type":"VEC3","min":[-0.5,-0.5,-0.5],"max":[0.5,0.5,0.5]},{"bufferView":1,"componentType":5126,"count":24,"type":"VEC3"},{"bufferView":2,"componentType":5123,"count":36,"type":"SCALAR"}],"extras":{"productId":"demo-oak-lounge-chair","type":"chair","dimensions":[0.72,0.88,0.78],"groundAnchor":[0.5,1]}}