{"asset":{"version":"2.0","generator":"ROOMFIT real-size product model generator"},"scene":0,"scenes":[{"nodes":[0,1,2,3,4,5,6,7]}],"nodes":[{"name":"back","mesh":0,"translation":[0,0.21,-0.18000000000000002],"scale":[1.6,0.42,0.04000000000000001],"extras":{"material":1}},{"name":"left-side","mesh":0,"translation":[-0.7360000000000001,0.21,0],"scale":[0.128,0.42,0.4],"extras":{"material":0}},{"name":"right-side","mesh":0,"translation":[0.7360000000000001,0.21,0],"scale":[0.128,0.42,0.4],"extras":{"material":0}},{"name":"top","mesh":0,"translation":[0,0.38,0],"scale":[1.6,0.08,0.4],"extras":{"material":0}},{"name":"bottom","mesh":0,"translation":[0,0.04,0],"scale":[1.6,0.08,0.4],"extras":{"material":0}},{"name":"shelf-1","mesh":0,"translation":[0,0.105,0],"scale":[1.4080000000000001,0.055,0.376],"extras":{"material":0}},{"name":"shelf-2","mesh":0,"translation":[0,0.21,0],"scale":[1.4080000000000001,0.055,0.376],"extras":{"material":0}},{"name":"shelf-3","mesh":0,"translation":[0,0.315,0],"scale":[1.4080000000000001,0.055,0.376],"extras":{"material":0}}],"meshes":[{"name":"demo-white-oak-console-unit-cube","primitives":[{"attributes":{"POSITION":0,"NORMAL":1},"indices":2,"material":0}]}],"materials":[{"name":"demo-white-oak-console-main","pbrMetallicRoughness":{"baseColorFactor":[0.9098039215686274,0.8745098039215686,0.8196078431372549,1],"metallicFactor":0.02,"roughnessFactor":0.76}},{"name":"demo-white-oak-console-detail","pbrMetallicRoughness":{"baseColorFactor":[0.9098039215686274,0.8745098039215686,0.8196078431372549,1],"metallicFactor":0.01,"roughnessFactor":0.9}}],"buffers":[{"byteLength":648,"uri":"data:application/octet-stream;base64,"}],"bufferViews":[{"buffer":0,"byteOffset":0,"byteLength":288,"target":34962},{"buffer":0,"byteOffset":288,"byteLength":288,"target":34962},{"buffer":0,"byteOffset":576,"byteLength":72,"target":34963}],"accessors":[{"bufferView":0,"componentType":5126,"count":24,"type":"VEC3","min":[-0.5,-0.5,-0.5],"max":[0.5,0.5,0.5]},{"bufferView":1,"componentType":5126,"count":24,"type":"VEC3"},{"bufferView":2,"componentType":5123,"count":36,"type":"SCALAR"}],"extras":{"productId":"demo-white-oak-console","type":"shelf","dimensions":[1.6,0.42,0.4],"groundAnchor":[0.5,1]}}