{"asset":{"version":"2.0","generator":"ROOMFIT real-size product model generator"},"scene":0,"scenes":[{"nodes":[0,1,2,3,4]}],"nodes":[{"name":"top","mesh":0,"translation":[0,0.365,0],"scale":[1.1,0.11,0.6],"extras":{"material":0}},{"name":"leg","mesh":0,"translation":[-0.462,0.1932,-0.22799999999999998],"scale":[0.065,0.378,0.065],"extras":{"material":0}},{"name":"leg","mesh":0,"translation":[-0.462,0.1932,0.22799999999999998],"scale":[0.065,0.378,0.065],"extras":{"material":0}},{"name":"leg","mesh":0,"translation":[0.462,0.1932,-0.22799999999999998],"scale":[0.065,0.378,0.065],"extras":{"material":0}},{"name":"leg","mesh":0,"translation":[0.462,0.1932,0.22799999999999998],"scale":[0.065,0.378,0.065],"extras":{"material":0}}],"meshes":[{"name":"demo-oak-stone-table-unit-cube","primitives":[{"attributes":{"POSITION":0,"NORMAL":1},"indices":2,"material":0}]}],"materials":[{"name":"demo-oak-stone-table-main","pbrMetallicRoughness":{"baseColorFactor":[0.788235294117647,0.6549019607843137,0.4980392156862745,1],"metallicFactor":0.02,"roughnessFactor":0.76}},{"name":"demo-oak-stone-table-detail","pbrMetallicRoughness":{"baseColorFactor":[0.788235294117647,0.6549019607843137,0.4980392156862745,1],"metallicFactor":0.01,"roughnessFactor":0.9}}],"buffers":[{"byteLength":648,"uri":"data:application/octet-stream;base64,"}],"bufferViews":[{"buffer":0,"byteOffset":0,"byteLength":288,"target":34962},{"buffer":0,"byteOffset":288,"byteLength":288,"target":34962},{"buffer":0,"byteOffset":576,"byteLength":72,"target":34963}],"accessors":[{"bufferView":0,"componentType":5126,"count":24,"type":"VEC3","min":[-0.5,-0.5,-0.5],"max":[0.5,0.5,0.5]},{"bufferView":1,"componentType":5126,"count":24,"type":"VEC3"},{"bufferView":2,"componentType":5123,"count":36,"type":"SCALAR"}],"extras":{"productId":"demo-oak-stone-table","type":"table","dimensions":[1.1,0.42,0.6],"groundAnchor":[0.5,1]}}