{"asset":{"version":"2.0","generator":"ROOMFIT real-size product model generator"},"scene":0,"scenes":[{"nodes":[0,1,2,3,4,5,6,7]}],"nodes":[{"name":"seat","mesh":0,"translation":[0,0.31,0],"scale":[1.8695999999999997,0.3,0.741],"extras":{"material":0}},{"name":"back","mesh":0,"translation":[0,0.5644,-0.3515],"scale":[1.9607999999999999,0.5146,0.152],"extras":{"material":0}},{"name":"left-arm","mesh":0,"translation":[-1.0488,0.46,0],"scale":[0.20519999999999997,0.55,0.855],"extras":{"material":0}},{"name":"right-arm","mesh":0,"translation":[1.0488,0.46,0],"scale":[0.20519999999999997,0.55,0.855],"extras":{"material":0}},{"name":"left-cushion","mesh":0,"translation":[-0.5015999999999999,0.54,0.02],"scale":[0.8892,0.18,0.627],"extras":{"material":1}},{"name":"right-cushion","mesh":0,"translation":[0.5015999999999999,0.54,0.02],"scale":[0.8892,0.18,0.627],"extras":{"material":1}},{"name":"left-back","mesh":0,"translation":[-0.5015999999999999,0.5726999999999999,-0.2375],"scale":[0.8892,0.3984,0.17099999999999999],"extras":{"material":1}},{"name":"right-back","mesh":0,"translation":[0.5015999999999999,0.5726999999999999,-0.2375],"scale":[0.8892,0.3984,0.17099999999999999],"extras":{"material":1}}],"meshes":[{"name":"kivik-dark-unit-cube","primitives":[{"attributes":{"POSITION":0,"NORMAL":1},"indices":2,"material":0}]}],"materials":[{"name":"kivik-dark-main","pbrMetallicRoughness":{"baseColorFactor":[0.30196078431372547,0.30196078431372547,0.29411764705882354,1],"metallicFactor":0.02,"roughnessFactor":0.76}},{"name":"kivik-dark-detail","pbrMetallicRoughness":{"baseColorFactor":[0.30196078431372547,0.30196078431372547,0.29411764705882354,1],"metallicFactor":0.01,"roughnessFactor":0.9}}],"buffers":[{"byteLength":648,"uri":"data:application/octet-stream;base64,"}],"bufferViews":[{"buffer":0,"byteOffset":0,"byteLength":288,"target":34962},{"buffer":0,"byteOffset":288,"byteLength":288,"target":34962},{"buffer":0,"byteOffset":576,"byteLength":72,"target":34963}],"accessors":[{"bufferView":0,"componentType":5126,"count":24,"type":"VEC3","min":[-0.5,-0.5,-0.5],"max":[0.5,0.5,0.5]},{"bufferView":1,"componentType":5126,"count":24,"type":"VEC3"},{"bufferView":2,"componentType":5123,"count":36,"type":"SCALAR"}],"extras":{"productId":"kivik-dark","type":"sofa","dimensions":[2.28,0.83,0.95],"groundAnchor":[0.5,1]}}