{"asset":{"version":"2.0","generator":"ROOMFIT real-size product model generator"},"scene":0,"scenes":[{"nodes":[0,1,2,3,4]}],"nodes":[{"name":"top","mesh":0,"translation":[0,0.395,0],"scale":[0.9,0.11,0.55],"extras":{"material":0}},{"name":"leg","mesh":0,"translation":[-0.378,0.20700000000000002,-0.20900000000000002],"scale":[0.065,0.405,0.065],"extras":{"material":0}},{"name":"leg","mesh":0,"translation":[-0.378,0.20700000000000002,0.20900000000000002],"scale":[0.065,0.405,0.065],"extras":{"material":0}},{"name":"leg","mesh":0,"translation":[0.378,0.20700000000000002,-0.20900000000000002],"scale":[0.065,0.405,0.065],"extras":{"material":0}},{"name":"leg","mesh":0,"translation":[0.378,0.20700000000000002,0.20900000000000002],"scale":[0.065,0.405,0.065],"extras":{"material":0}}],"meshes":[{"name":"lack-dark-unit-cube","primitives":[{"attributes":{"POSITION":0,"NORMAL":1},"indices":2,"material":0}]}],"materials":[{"name":"lack-dark-main","pbrMetallicRoughness":{"baseColorFactor":[0.23137254901960785,0.1803921568627451,0.15294117647058825,1],"metallicFactor":0.02,"roughnessFactor":0.76}},{"name":"lack-dark-detail","pbrMetallicRoughness":{"baseColorFactor":[0.23137254901960785,0.1803921568627451,0.15294117647058825,1],"metallicFactor":0.01,"roughnessFactor":0.9}}],"buffers":[{"byteLength":648,"uri":"data:application/octet-stream;base64,"}],"bufferViews":[{"buffer":0,"byteOffset":0,"byteLength":288,"target":34962},{"buffer":0,"byteOffset":288,"byteLength":288,"target":34962},{"buffer":0,"byteOffset":576,"byteLength":72,"target":34963}],"accessors":[{"bufferView":0,"componentType":5126,"count":24,"type":"VEC3","min":[-0.5,-0.5,-0.5],"max":[0.5,0.5,0.5]},{"bufferView":1,"componentType":5126,"count":24,"type":"VEC3"},{"bufferView":2,"componentType":5123,"count":36,"type":"SCALAR"}],"extras":{"productId":"lack-dark","type":"table","dimensions":[0.9,0.45,0.55],"groundAnchor":[0.5,1]}}