{"asset":{"version":"2.0","generator":"ROOMFIT real-size product model generator"},"scene":0,"scenes":[{"nodes":[0,1,2,3,4,5]}],"nodes":[{"name":"seat","mesh":0,"translation":[0,0.46,0],"scale":[0.48960000000000004,0.13,0.5084],"extras":{"material":1}},{"name":"back","mesh":0,"translation":[0,0.73,-0.24599999999999997],"scale":[0.476,0.53,0.1],"extras":{"material":1}},{"name":"left-frame","mesh":0,"translation":[-0.272,0.38,0],"scale":[0.055,0.76,0.07],"extras":{"material":0}},{"name":"right-frame","mesh":0,"translation":[0.272,0.38,0],"scale":[0.055,0.76,0.07],"extras":{"material":0}},{"name":"left-base","mesh":0,"translation":[-0.272,0.05,0.06],"scale":[0.07,0.1,0.7215999999999999],"extras":{"material":0}},{"name":"right-base","mesh":0,"translation":[0.272,0.05,0.06],"scale":[0.07,0.1,0.7215999999999999],"extras":{"material":0}}],"meshes":[{"name":"poang-beige-unit-cube","primitives":[{"attributes":{"POSITION":0,"NORMAL":1},"indices":2,"material":0}]}],"materials":[{"name":"poang-beige-main","pbrMetallicRoughness":{"baseColorFactor":[0.8509803921568627,0.803921568627451,0.7254901960784313,1],"metallicFactor":0.02,"roughnessFactor":0.76}},{"name":"poang-beige-detail","pbrMetallicRoughness":{"baseColorFactor":[0.8509803921568627,0.803921568627451,0.7254901960784313,1],"metallicFactor":0.01,"roughnessFactor":0.9}}],"buffers":[{"byteLength":648,"uri":"data:application/octet-stream;base64,"}],"bufferViews":[{"buffer":0,"byteOffset":0,"byteLength":288,"target":34962},{"buffer":0,"byteOffset":288,"byteLength":288,"target":34962},{"buffer":0,"byteOffset":576,"byteLength":72,"target":34963}],"accessors":[{"bufferView":0,"componentType":5126,"count":24,"type":"VEC3","min":[-0.5,-0.5,-0.5],"max":[0.5,0.5,0.5]},{"bufferView":1,"componentType":5126,"count":24,"type":"VEC3"},{"bufferView":2,"componentType":5123,"count":36,"type":"SCALAR"}],"extras":{"productId":"poang-beige","type":"chair","dimensions":[0.68,1,0.82],"groundAnchor":[0.5,1]}}